<svg width="28" height="28" viewBox="0 0 28 28" fill="none" xmlns="http://www.w3.org/2000/svg">
<rect width="28" height="28" rx="7" fill="#FFF5E6"/>
<path d="M14.0013 11.0833V20.5625M14.0013 11.0833V9.625C14.0013 9.33657 14.0868 9.05462 14.2471 8.81479C14.4073 8.57497 14.6351 8.38805 14.9016 8.27768C15.168 8.1673 15.4613 8.13842 15.7441 8.19469C16.027 8.25096 16.2869 8.38985 16.4908 8.5938C16.6948 8.79775 16.8337 9.05761 16.8899 9.34049C16.9462 9.62338 16.9173 9.91661 16.807 10.1831C16.6966 10.4496 16.5097 10.6773 16.2698 10.8376C16.03 10.9978 15.7481 11.0833 15.4596 11.0833H14.0013ZM14.0013 11.0833V9.26042C14.0013 8.89988 13.8944 8.54744 13.6941 8.24766C13.4938 7.94788 13.2091 7.71423 12.876 7.57626C12.5429 7.43829 12.1764 7.40219 11.8228 7.47253C11.4691 7.54287 11.1443 7.71648 10.8894 7.97142C10.6345 8.22636 10.4608 8.55117 10.3905 8.90478C10.3202 9.2584 10.3563 9.62492 10.4942 9.95802C10.6322 10.2911 10.8659 10.5758 11.1656 10.7761C11.4654 10.9764 11.8178 11.0833 12.1784 11.0833H14.0013Z" stroke="#FBA613" stroke-width="1.82292" stroke-linecap="round" stroke-linejoin="round"/>
</svg>
