<svg width="25" height="25" viewBox="0 0 25 25" fill="none" xmlns="http://www.w3.org/2000/svg">
<path d="M9.1888 5.10417H7.14714C6.60565 5.10417 6.08635 5.31927 5.70346 5.70216C5.32057 6.08504 5.10547 6.60435 5.10547 7.14583V19.3958C5.10547 19.9373 5.32057 20.4566 5.70346 20.8395C6.08635 21.2224 6.60565 21.4375 7.14714 21.4375H17.3555C17.897 21.4375 18.4163 21.2224 18.7991 20.8395C19.182 20.4566 19.3971 19.9373 19.3971 19.3958V7.14583C19.3971 6.60435 19.182 6.08504 18.7991 5.70216C18.4163 5.31927 17.897 5.10417 17.3555 5.10417H15.3138M9.1888 5.10417C9.1888 5.64565 9.40391 6.16496 9.78679 6.54784C10.1697 6.93073 10.689 7.14583 11.2305 7.14583H13.2721C13.8136 7.14583 14.3329 6.93073 14.7158 6.54784C15.0987 6.16496 15.3138 5.64565 15.3138 5.10417M9.1888 5.10417C9.1888 4.56268 9.40391 4.04338 9.78679 3.66049C10.1697 3.2776 10.689 3.0625 11.2305 3.0625H13.2721C13.8136 3.0625 14.3329 3.2776 14.7158 3.66049C15.0987 4.04338 15.3138 4.56268 15.3138 5.10417" stroke="#FBA613" stroke-width="2.04167" stroke-linecap="round" stroke-linejoin="round"/>
</svg>
