<svg width="18" height="18" viewBox="0 0 18 18" fill="none" xmlns="http://www.w3.org/2000/svg">
<path d="M5.46875 4.59375V1.09375M12.4688 4.59375V1.09375M4.59375 8.09375H13.3438M2.84375 16.8438H15.0938C15.5579 16.8438 16.003 16.6594 16.3312 16.3312C16.6594 16.003 16.8438 15.5579 16.8438 15.0938V4.59375C16.8438 4.12962 16.6594 3.6845 16.3312 3.35631C16.003 3.02812 15.5579 2.84375 15.0938 2.84375H2.84375C2.37962 2.84375 1.9345 3.02812 1.60631 3.35631C1.27812 3.6845 1.09375 4.12962 1.09375 4.59375V15.0938C1.09375 15.5579 1.27812 16.003 1.60631 16.3312C1.9345 16.6594 2.37962 16.8438 2.84375 16.8438Z" stroke="#3B82F6" stroke-width="2.1875" stroke-linecap="round" stroke-linejoin="round"/>
</svg>
