<svg width="32" height="30" viewBox="0 0 32 30" fill="none" xmlns="http://www.w3.org/2000/svg">
<path d="M13.6134 1.45057C14.2434 -0.483525 16.9797 -0.483525 17.6076 1.45057L19.8546 8.36377C19.9919 8.7848 20.2587 9.15165 20.617 9.41189C20.9753 9.67214 21.4067 9.81245 21.8496 9.81277H29.1198C31.1547 9.81277 31.9989 12.4168 30.3546 13.6138L24.4746 17.8852C24.1156 18.1456 23.8482 18.5131 23.7109 18.9349C23.5736 19.3566 23.5733 19.8111 23.7102 20.233L25.9572 27.1462C26.5872 29.0803 24.3717 30.691 22.7232 29.494L16.8432 25.2226C16.4845 24.9622 16.0527 24.8219 15.6094 24.8219C15.1662 24.8219 14.7344 24.9622 14.3757 25.2226L8.49569 29.494C6.84929 30.691 4.63589 29.0803 5.26379 27.1462L7.51079 20.233C7.64766 19.8111 7.64741 19.3566 7.51009 18.9349C7.37277 18.5131 7.10543 18.1456 6.74639 17.8852L0.868492 13.6159C-0.775807 12.4189 0.0704927 9.81487 2.10329 9.81487H9.37139C9.81459 9.81499 10.2465 9.67488 10.6052 9.41461C10.9639 9.15434 11.2311 8.78724 11.3685 8.36587L13.6155 1.45267L13.6134 1.45057Z" fill="#FBA613"/>
</svg>
