<svg width="21" height="18" viewBox="0 0 21 18" fill="none" xmlns="http://www.w3.org/2000/svg">
<path d="M2.36503 2.36634C1.93845 2.79291 1.60008 3.29933 1.36921 3.85667C1.13835 4.41401 1.01953 5.01137 1.01953 5.61463C1.01953 6.2179 1.13835 6.81526 1.36921 7.3726C1.60008 7.92994 1.93845 8.43636 2.36503 8.86293L10.2071 16.705L18.0491 8.86293C18.9106 8.00142 19.3946 6.83298 19.3946 5.61463C19.3946 4.39629 18.9106 3.22784 18.0491 2.36634C17.1876 1.50484 16.0192 1.02086 14.8008 1.02086C13.5825 1.02086 12.414 1.50484 11.5525 2.36634L10.2071 3.7118L8.86161 2.36634C8.43504 1.93977 7.92863 1.60139 7.37129 1.37053C6.81394 1.13967 6.21659 1.02084 5.61332 1.02084C5.01006 1.02084 4.4127 1.13967 3.85536 1.37053C3.29801 1.60139 2.7916 1.93977 2.36503 2.36634Z" stroke="#FF8900" stroke-width="2.04167" stroke-linecap="round" stroke-linejoin="round"/>
</svg>
