<svg width="25" height="25" viewBox="0 0 25 25" fill="none" xmlns="http://www.w3.org/2000/svg">
<path d="M4.408 6.44962C3.98142 6.87619 3.64304 7.38261 3.41218 7.93995C3.18132 8.49729 3.0625 9.09465 3.0625 9.69792C3.0625 10.3012 3.18132 10.8985 3.41218 11.4559C3.64304 12.0132 3.98142 12.5196 4.408 12.9462L12.25 20.7883L20.0921 12.9462C20.9536 12.0847 21.4376 10.9163 21.4376 9.69792C21.4376 8.47957 20.9536 7.31112 20.0921 6.44962C19.2306 5.58812 18.0621 5.10414 16.8438 5.10414C15.6254 5.10414 14.457 5.58812 13.5955 6.44962L12.25 7.79508L10.9046 6.44962C10.478 6.02305 9.9716 5.68467 9.41425 5.45381C8.85691 5.22295 8.25955 5.10413 7.65629 5.10413C7.05303 5.10413 6.45567 5.22295 5.89832 5.45381C5.34098 5.68467 4.83457 6.02305 4.408 6.44962Z" stroke="#FBA613" stroke-width="2.04167" stroke-linecap="round" stroke-linejoin="round"/>
</svg>
