<svg width="18" height="18" viewBox="0 0 18 18" fill="none" xmlns="http://www.w3.org/2000/svg">
<path d="M2.1875 6.56251C2.1875 6.17573 2.34115 5.8048 2.61464 5.53131C2.88813 5.25782 3.25906 5.10417 3.64583 5.10417H4.32396C4.56399 5.10421 4.80032 5.045 5.01198 4.93179C5.22363 4.81858 5.40407 4.65488 5.53729 4.45521L6.12938 3.56563C6.26259 3.36596 6.44303 3.20226 6.65469 3.08905C6.86635 2.97585 7.10268 2.91664 7.34271 2.91667H10.1573C10.3973 2.91664 10.6337 2.97585 10.8453 3.08905C11.057 3.20226 11.2374 3.36596 11.3706 3.56563L11.9627 4.45521C12.0959 4.65488 12.2764 4.81858 12.488 4.93179C12.6997 5.045 12.936 5.10421 13.176 5.10417H13.8542C14.2409 5.10417 14.6119 5.25782 14.8854 5.53131C15.1589 5.8048 15.3125 6.17573 15.3125 6.56251V13.125C15.3125 13.5118 15.1589 13.8827 14.8854 14.1562C14.6119 14.4297 14.2409 14.5833 13.8542 14.5833H3.64583C3.25906 14.5833 2.88813 14.4297 2.61464 14.1562C2.34115 13.8827 2.1875 13.5118 2.1875 13.125V6.56251Z" stroke="white" stroke-width="1.82292" stroke-linecap="round" stroke-linejoin="round"/>
<path d="M10.9375 9.47917C10.9375 10.0593 10.707 10.6157 10.2968 11.026C9.88656 11.4362 9.33016 11.6667 8.75 11.6667C8.16984 11.6667 7.61344 11.4362 7.2032 11.026C6.79297 10.6157 6.5625 10.0593 6.5625 9.47917C6.5625 8.89901 6.79297 8.34261 7.2032 7.93238C7.61344 7.52214 8.16984 7.29167 8.75 7.29167C9.33016 7.29167 9.88656 7.52214 10.2968 7.93238C10.707 8.34261 10.9375 8.89901 10.9375 9.47917Z" stroke="white" stroke-width="1.82292" stroke-linecap="round" stroke-linejoin="round"/>
</svg>
