<svg width="29" height="29" viewBox="0 0 29 29" fill="none" xmlns="http://www.w3.org/2000/svg">
<path d="M18.8608 8.25126C18.8608 9.50175 18.364 10.701 17.4798 11.5853C16.5956 12.4695 15.3963 12.9663 14.1458 12.9663C12.8953 12.9663 11.696 12.4695 10.8118 11.5853C9.92754 10.701 9.43078 9.50175 9.43078 8.25126C9.43078 7.00076 9.92754 5.80148 10.8118 4.91725C11.696 4.03301 12.8953 3.53625 14.1458 3.53625C15.3963 3.53625 16.5956 4.03301 17.4798 4.91725C18.364 5.80148 18.8608 7.00076 18.8608 8.25126ZM14.1458 16.5025C11.9574 16.5025 9.85868 17.3718 8.31127 18.9192C6.76386 20.4667 5.89453 22.5654 5.89453 24.7538H22.397C22.397 22.5654 21.5277 20.4667 19.9803 18.9192C18.4329 17.3718 16.3341 16.5025 14.1458 16.5025Z" stroke="white" stroke-width="2.3575" stroke-linecap="round" stroke-linejoin="round"/>
</svg>
