<svg width="60" height="60" viewBox="0 0 60 60" fill="none" xmlns="http://www.w3.org/2000/svg">
<g filter="url(#filter0_d_131_29087)">
<rect x="2" y="1" width="56" height="56" rx="14" fill="#FFF9F2" shape-rendering="crispEdges"/>
<rect x="2.5" y="1.5" width="55" height="55" rx="13.5" stroke="#FFF5E6" shape-rendering="crispEdges"/>
<path d="M30 22V22.875M35.25 32.5H37M31.75 32.5H30V36M30 26.375V29M30 29H30.0088M30 29H33.5088M33.5 36H37M23 29H26.5M37 29H37.0088M23.875 25.5H25.625C25.8571 25.5 26.0796 25.4078 26.2437 25.2437C26.4078 25.0796 26.5 24.8571 26.5 24.625V22.875C26.5 22.6429 26.4078 22.4204 26.2437 22.2563C26.0796 22.0922 25.8571 22 25.625 22H23.875C23.6429 22 23.4204 22.0922 23.2563 22.2563C23.0922 22.4204 23 22.6429 23 22.875V24.625C23 24.8571 23.0922 25.0796 23.2563 25.2437C23.4204 25.4078 23.6429 25.5 23.875 25.5ZM34.375 25.5H36.125C36.3571 25.5 36.5796 25.4078 36.7437 25.2437C36.9078 25.0796 37 24.8571 37 24.625V22.875C37 22.6429 36.9078 22.4204 36.7437 22.2563C36.5796 22.0922 36.3571 22 36.125 22H34.375C34.1429 22 33.9204 22.0922 33.7563 22.2563C33.5922 22.4204 33.5 22.6429 33.5 22.875V24.625C33.5 24.8571 33.5922 25.0796 33.7563 25.2437C33.9204 25.4078 34.1429 25.5 34.375 25.5ZM23.875 36H25.625C25.8571 36 26.0796 35.9078 26.2437 35.7437C26.4078 35.5796 26.5 35.3571 26.5 35.125V33.375C26.5 33.1429 26.4078 32.9204 26.2437 32.7563C26.0796 32.5922 25.8571 32.5 25.625 32.5H23.875C23.6429 32.5 23.4204 32.5922 23.2563 32.7563C23.0922 32.9204 23 33.1429 23 33.375V35.125C23 35.3571 23.0922 35.5796 23.2563 35.7437C23.4204 35.9078 23.6429 36 23.875 36Z" stroke="#FBA613" stroke-width="1.75" stroke-linecap="round" stroke-linejoin="round"/>
</g>
<defs>
<filter id="filter0_d_131_29087" x="0" y="0" width="60" height="60" filterUnits="userSpaceOnUse" color-interpolation-filters="sRGB">
<feFlood flood-opacity="0" result="BackgroundImageFix"/>
<feColorMatrix in="SourceAlpha" type="matrix" values="0 0 0 0 0 0 0 0 0 0 0 0 0 0 0 0 0 0 127 0" result="hardAlpha"/>
<feOffset dy="1"/>
<feGaussianBlur stdDeviation="1"/>
<feComposite in2="hardAlpha" operator="out"/>
<feColorMatrix type="matrix" values="0 0 0 0 0 0 0 0 0 0 0 0 0 0 0 0 0 0 0.05 0"/>
<feBlend mode="normal" in2="BackgroundImageFix" result="effect1_dropShadow_131_29087"/>
<feBlend mode="normal" in="SourceGraphic" in2="effect1_dropShadow_131_29087" result="shape"/>
</filter>
</defs>
</svg>
