<svg width="23" height="15" viewBox="0 0 23 15" fill="none" xmlns="http://www.w3.org/2000/svg">
<path d="M19.3301 12.561C19.501 12.561 19.6479 12.4995 19.771 12.3765C19.894 12.2534 19.9556 12.103 19.9556 11.9253V10.6025C19.9556 10.4248 19.894 10.2778 19.771 10.1616C19.6479 10.0386 19.501 9.97705 19.3301 9.97705H17.9971C17.8262 9.97705 17.6792 10.0386 17.5562 10.1616C17.4331 10.2778 17.3716 10.4248 17.3716 10.6025V11.9253C17.3716 12.103 17.4331 12.2534 17.5562 12.3765C17.6792 12.4995 17.8262 12.561 17.9971 12.561H19.3301ZM16.5513 9.60791C16.6743 9.60791 16.7803 9.56348 16.8691 9.47461C16.958 9.38574 17.0024 9.27979 17.0024 9.15674V7.10596C17.0024 6.97607 16.9546 6.8667 16.8589 6.77783C16.77 6.68896 16.6675 6.64453 16.5513 6.64453H3.41602C3.28613 6.64453 3.17676 6.69238 3.08789 6.78809C2.99902 6.87695 2.95459 6.98291 2.95459 7.10596V9.14648C2.95459 9.27637 2.99902 9.38574 3.08789 9.47461C3.18359 9.56348 3.29297 9.60791 3.41602 9.60791H16.5513ZM3.69287 8.12109C3.69287 8.02539 3.73047 7.93994 3.80566 7.86475C3.88086 7.78955 3.96631 7.75195 4.06201 7.75195H12.1934C12.2959 7.75195 12.3813 7.78955 12.4497 7.86475C12.5249 7.93994 12.5625 8.02539 12.5625 8.12109C12.5625 8.22363 12.5249 8.3125 12.4497 8.3877C12.3813 8.45605 12.2959 8.49023 12.1934 8.49023H4.06201C3.96631 8.49023 3.88086 8.45605 3.80566 8.3877C3.73047 8.3125 3.69287 8.22363 3.69287 8.12109ZM2.40088 0H19.771C20.2153 0 20.6187 0.109375 20.981 0.328125C21.3433 0.540039 21.6304 0.827148 21.8423 1.18945C22.061 1.55176 22.1704 1.95508 22.1704 2.39941V12.3765C22.1704 12.8208 22.061 13.2241 21.8423 13.5864C21.6304 13.9487 21.3433 14.2358 20.981 14.4478C20.6187 14.6665 20.2153 14.7759 19.771 14.7759H2.40088C1.96338 14.7759 1.56006 14.6665 1.19092 14.4478C0.828613 14.2358 0.538086 13.9453 0.319336 13.5762C0.107422 13.2139 0.00146484 12.814 0.00146484 12.3765V2.39941C0.00146484 1.95508 0.107422 1.55176 0.319336 1.18945C0.538086 0.827148 0.828613 0.540039 1.19092 0.328125C1.56006 0.109375 1.96338 0 2.40088 0ZM1.47803 2.39941V2.95312H20.6938V2.39941C20.6938 2.14648 20.6016 1.93115 20.417 1.75342C20.2393 1.56885 20.0239 1.47656 19.771 1.47656H2.40088C2.14795 1.47656 1.9292 1.56885 1.74463 1.75342C1.56689 1.93115 1.47803 2.14648 1.47803 2.39941ZM1.47803 5.16797V12.3765C1.47803 12.6294 1.56689 12.8447 1.74463 13.0225C1.9292 13.207 2.14795 13.2993 2.40088 13.2993H19.771C20.0239 13.2993 20.2393 13.2104 20.417 13.0327C20.6016 12.855 20.6938 12.6362 20.6938 12.3765V5.16797H1.47803Z" fill="#FBA613"/>
</svg>
